<?xml version="1.0" encoding="UTF-8"?>
<svg version="1.1" xmlns="http://www.w3.org/2000/svg" width="1854" height="886">
<path d="M0 0 C11.88 0 23.76 0 36 0 C36.33 15.51 36.66 31.02 37 47 C38.65 45.35 40.3 43.7 42 42 C47.84593712 37.69571297 53.91799611 37.02622447 61 38 C68.19286605 39.91060504 73.20774889 42.71364961 77.3359375 49.05078125 C84.39142361 61.51003562 84.32620112 77.50681015 81.28125 91.2421875 C78.96343292 98.4553941 75.28972213 104.15362422 68.921875 108.37890625 C63.50573593 111.02249794 58.17524087 111.36628011 52.25 111.4375 C51.52893066 111.4478125 50.80786133 111.458125 50.06494141 111.46875 C44.32587079 111.3732094 40.09122729 110.09122729 36 106 C35.505 107.98 35.505 107.98 35 110 C23.45 110 11.9 110 0 110 C0 109.01 0 108.02 0 107 C2.64 107 5.28 107 8 107 C8 72.68 8 38.36 8 3 C5.36 3 2.72 3 0 3 C0 2.01 0 1.02 0 0 Z M41.25 48.1875 C34.5692921 56.53838487 35.81783622 67.77201015 35.8125 77.9375 C35.80025391 79.16146484 35.78800781 80.38542969 35.77539062 81.64648438 C35.62605367 93.48875561 35.62605367 93.48875561 40.1875 104.125 C42.96665031 106.38056489 42.96665031 106.38056489 46.8125 105.8125 C47.864375 105.544375 48.91625 105.27625 50 105 C56.21760896 89.32081219 55.53741409 68.56098509 53 52 C51.5651741 48.66335754 51.5651741 48.66335754 50 46 C45.98031412 45.53259467 44.47874671 45.61917875 41.25 48.1875 Z " fill="#6176AB" transform="translate(771,333)"/>
<path d="M0 0 C7.21170802 7.79971299 7.04530689 18.43642554 7.2578125 28.48046875 C7.2785936 29.31259888 7.29937469 30.144729 7.32078552 31.0020752 C7.38556819 33.63021511 7.44483037 36.258445 7.50390625 38.88671875 C7.54715947 40.68099846 7.59077579 42.47526945 7.63476562 44.26953125 C7.74117519 48.6418376 7.84263788 53.01423338 7.94140625 57.38671875 C9.59140625 57.71671875 11.24140625 58.04671875 12.94140625 58.38671875 C13.93140625 53.76671875 14.92140625 49.14671875 15.94140625 44.38671875 C16.93140625 44.38671875 17.92140625 44.38671875 18.94140625 44.38671875 C18.64766717 52.37642186 17.96565876 59.60636034 11.87890625 65.32421875 C7.72528476 67.60201118 3.80221486 67.60306321 -0.80859375 67.63671875 C-1.49953125 67.65734375 -2.19046875 67.67796875 -2.90234375 67.69921875 C-10.30252319 67.7548592 -15.451736 65.31395738 -21.05859375 60.38671875 C-22.17234375 61.56234375 -22.17234375 61.56234375 -23.30859375 62.76171875 C-28.44572487 67.66534391 -32.32180457 67.7412254 -39.33740234 67.68212891 C-45.18929751 67.53856772 -50.12858121 67.08793938 -54.609375 62.95703125 C-59.08285637 57.89128615 -59.35491087 53.58505633 -59.26953125 47.11328125 C-58.88744607 42.17447655 -57.27454354 39.50667251 -53.68359375 36.19921875 C-43.90702155 30.47225611 -31.9801527 31.00817948 -21.05859375 31.38671875 C-21.3368884 26.98993173 -21.63355441 22.59457119 -21.93359375 18.19921875 C-22.01222656 16.95333984 -22.09085938 15.70746094 -22.171875 14.42382812 C-22.25566406 13.22177734 -22.33945313 12.01972656 -22.42578125 10.78125 C-22.49909668 9.67628174 -22.57241211 8.57131348 -22.64794922 7.43286133 C-23.05715927 4.39735964 -23.62717882 2.09284441 -25.05859375 -0.61328125 C-27.96210499 -1.77777006 -27.96210499 -1.77777006 -31.05859375 -1.61328125 C-33.05859375 -0.61328125 -33.05859375 -0.61328125 -34.05859375 1.38671875 C-34.30929288 4.01242579 -34.30929288 4.01242579 -34.05859375 6.38671875 C-32.73859375 6.38671875 -31.41859375 6.38671875 -30.05859375 6.38671875 C-28.46505228 11.16734315 -28.35386462 15.52125929 -30.12109375 20.19921875 C-33.15944558 23.62961597 -36.54153725 24.98122045 -41.046875 25.70703125 C-46.43250232 26.02075711 -49.69989958 24.50007173 -54.05859375 21.38671875 C-55.94607805 15.72426585 -55.7498174 9.62303057 -53.99609375 3.94921875 C-51.47137437 0.61007377 -48.81349121 -0.88602842 -45.05859375 -2.61328125 C-44.23359375 -3.00515625 -43.40859375 -3.39703125 -42.55859375 -3.80078125 C-30.45931437 -7.73304705 -10.3324301 -8.09733137 0 0 Z M-27.18359375 35.94921875 C-31.11234192 41.05659138 -31.69248133 47.14536415 -31.05859375 53.38671875 C-30.52916651 55.79652548 -29.84072543 58.04032371 -29.05859375 60.38671875 C-27.73859375 60.38671875 -26.41859375 60.38671875 -25.05859375 60.38671875 C-19.27436239 53.31710265 -20.95196009 42.92925986 -21.05859375 34.38671875 C-24.96109616 33.99179178 -24.96109616 33.99179178 -27.18359375 35.94921875 Z " fill="#222A75" transform="translate(1195.05859375,376.61328125)"/>
<path d="M0 0 C8.58 0 17.16 0 26 0 C26 24.09 26 48.18 26 73 C30.62 73 35.24 73 40 73 C40 68.71 40 64.42 40 60 C40.99 60 41.98 60 43 60 C43 69.24 43 78.48 43 88 C42.01 88 41.02 88 40 88 C40 84.37 40 80.74 40 77 C35.38 77 30.76 77 26 77 C26 84.26 26 91.52 26 99 C29.3 99 32.6 99 36 99 C36 100.32 36 101.64 36 103 C19.17 103 2.34 103 -15 103 C-15 101.68 -15 100.36 -15 99 C-10.71 99 -6.42 99 -2 99 C-2 91.74 -2 84.48 -2 77 C-14.87 77 -27.74 77 -41 77 C-39.87540973 69.12786808 -39.87540973 69.12786808 -37.55078125 65.1640625 C-37.0395874 64.2776709 -36.52839355 63.3912793 -36.00170898 62.47802734 C-35.44427002 61.53652832 -34.88683105 60.5950293 -34.3125 59.625 C-33.12160529 57.56816585 -31.93152937 55.51085745 -30.7421875 53.453125 C-30.1244043 52.39158203 -29.50662109 51.33003906 -28.87011719 50.23632812 C-25.83388401 44.98197996 -22.88960016 39.67691585 -19.9375 34.375 C-15.38539853 26.23214995 -10.80740843 18.10458743 -6.1875 10 C-5.42264282 8.65494385 -5.42264282 8.65494385 -4.64233398 7.28271484 C-4.17641846 6.46754395 -3.71050293 5.65237305 -3.23046875 4.8125 C-2.82207764 4.09707031 -2.41368652 3.38164062 -1.99291992 2.64453125 C-1 1 -1 1 0 0 Z M-3 15 C-3.35078613 15.63164062 -3.70157227 16.26328125 -4.06298828 16.9140625 C-11.90417362 31.01651181 -19.87215997 45.0286607 -28.0390625 58.9453125 C-28.54856445 59.81575195 -29.05806641 60.68619141 -29.58300781 61.58300781 C-30.47885445 63.1110715 -31.37873079 64.63678614 -32.28417969 66.15917969 C-34.32823968 69.36217284 -34.32823968 69.36217284 -35 73 C-24.11 73 -13.22 73 -2 73 C-2 53.86 -2 34.72 -2 15 C-2.33 15 -2.66 15 -3 15 Z " fill="#404C8D" transform="translate(1048,340)"/>
<path d="M0 0 C14.19 0 28.38 0 43 0 C43 0.99 43 1.98 43 3 C40.69 3.33 38.38 3.66 36 4 C37.97132268 9.96452506 39.94727598 15.92750108 41.92651367 21.8894043 C42.59979224 23.91932049 43.27199524 25.94959374 43.94311523 27.98022461 C44.90588842 30.89270231 45.87247565 33.80388952 46.83984375 36.71484375 C47.14091537 37.6283812 47.441987 38.54191864 47.75218201 39.48313904 C48.032397 40.32393509 48.312612 41.16473114 48.60131836 42.03100586 C48.84780624 42.77491074 49.09429413 43.51881561 49.34825134 44.28526306 C49.86755377 46.00413572 49.86755377 46.00413572 51 47 C58.425 25.715 58.425 25.715 66 4 C63.03 3.67 60.06 3.34 57 3 C57 2.01 57 1.02 57 0 C64.26 0 71.52 0 79 0 C79 0.99 79 1.98 79 3 C76.36 3 73.72 3 71 3 C70.74420166 4.26392578 70.48840332 5.52785156 70.22485352 6.83007812 C69.01158107 12.27417961 67.25226076 17.4626135 65.40234375 22.71875 C64.87675369 24.23110733 64.87675369 24.23110733 64.34054565 25.77401733 C63.21152209 29.01789814 62.07501363 32.25908753 60.9375 35.5 C60.15891229 37.72666023 59.38051099 39.95338564 58.60229492 42.18017578 C57.08375032 46.52142189 55.56146917 50.86133114 54.03613281 55.20019531 C52.59059665 59.31305619 51.15405245 63.42885048 49.72770691 67.54840088 C48.76391813 70.32672673 47.78789794 73.10073248 46.8125 75.875 C46.49982178 76.78443359 46.18714355 77.69386719 45.86499023 78.63085938 C42.60097471 87.79362412 38.20950514 99.03812184 29.625 104.3125 C23.17130938 107.27346292 15.16735205 107.23945524 8.42578125 105.234375 C4.79448772 103.5429037 1.75028996 101.70649638 0 98 C-1.41891297 91.81759348 -1.04570871 88.54754086 2 83 C4.01939864 80.4757517 4.84500596 80.05166468 8 79 C13.62162453 78.56756734 17.14098427 79.33230509 22 82 C24.89762077 85.40155482 24.20852423 89.7600074 24 94 C23 95 23 95 20.4375 95.0625 C19.633125 95.041875 18.82875 95.02125 18 95 C18.33 96.98 18.66 98.96 19 101 C24.15091464 100.97134744 24.15091464 100.97134744 28.65625 98.796875 C35.904419 90.85473237 39.58111062 79.99367666 43 70 C39.04 70 35.08 70 31 70 C27.99736525 63.40906683 25.31463897 56.75501925 22.77734375 49.97265625 C22.39058975 48.94369736 22.00383575 47.91473846 21.60536194 46.854599 C20.79307989 44.69109385 19.98218261 42.52706833 19.17260742 40.36254883 C17.94180008 37.07398926 16.70458153 33.78789187 15.46679688 30.50195312 C14.67409059 28.38816651 13.88176037 26.27423883 13.08984375 24.16015625 C12.7241478 23.19006119 12.35845184 22.21996613 11.98167419 21.22047424 C9.74050067 15.21026559 7.76084423 9.16817153 6 3 C4.02 3 2.04 3 0 3 C0 2.01 0 1.02 0 0 Z " fill="#7D94B2" transform="translate(560,373)"/>
<path d="M0 0 C5.11016266 3.65383132 7.95952717 10.27724345 9.671875 16.16015625 C10.21919911 20.39750417 10.03515625 24.70010654 10.03515625 28.97265625 C-3.49484375 28.97265625 -17.02484375 28.97265625 -30.96484375 28.97265625 C-30.71734375 32.25203125 -30.46984375 35.53140625 -30.21484375 38.91015625 C-30.1468457 39.92456787 -30.07884766 40.93897949 -30.00878906 41.98413086 C-29.47819438 48.16940037 -28.26094957 53.6333161 -24.96484375 58.97265625 C-20.62273892 62.22923487 -16.25276681 62.6783753 -10.96484375 61.97265625 C-5.28037976 60.78661207 -1.78659133 58.45007346 1.78125 53.890625 C3.64860664 51.03432559 4.85930413 48.17358702 6.03515625 44.97265625 C7.35515625 44.97265625 8.67515625 44.97265625 10.03515625 44.97265625 C9.64987473 52.48564589 4.96591513 58.45390821 -0.40234375 63.41015625 C-6.26125477 68.56423587 -13.91817297 68.31157108 -21.27734375 68.28515625 C-22.16357422 68.30126953 -23.04980469 68.31738281 -23.96289062 68.33398438 C-34.11862744 68.34139191 -43.23801258 65.75213647 -50.96484375 58.97265625 C-59.70163747 49.01500052 -60.83768335 37.58038849 -60.12890625 24.86669922 C-59.35200511 15.89765298 -54.36973959 8.53591933 -48.27734375 2.16015625 C-43.78763149 -0.80474807 -39.08671381 -2.44900313 -33.96484375 -4.02734375 C-33.33707031 -4.22199219 -32.70929687 -4.41664063 -32.0625 -4.6171875 C-21.24326451 -6.73268047 -9.73873237 -5.0920211 0 0 Z M-27.65234375 -0.02734375 C-32.54989657 7.43559388 -31.1510602 17.44808076 -30.96484375 25.97265625 C-26.34484375 25.97265625 -21.72484375 25.97265625 -16.96484375 25.97265625 C-16.88334783 22.95127058 -16.82410954 19.9321172 -16.77734375 16.91015625 C-16.75220703 16.06259766 -16.72707031 15.21503906 -16.70117188 14.34179688 C-16.63637098 8.74731978 -17.34725134 4.93751037 -19.96484375 -0.02734375 C-21.0118794 -1.28411214 -21.0118794 -1.28411214 -23.33984375 -1.27734375 C-25.91221455 -1.22039615 -25.91221455 -1.22039615 -27.65234375 -0.02734375 Z " fill="#5568A1" transform="translate(917.96484375,376.02734375)"/>
<path d="M0 0 C5.66279436 4.79159523 7.63056808 9.65284039 9.0625 16.8125 C9.0625 20.4425 9.0625 24.0725 9.0625 27.8125 C-4.4675 27.8125 -17.9975 27.8125 -31.9375 27.8125 C-31.4081025 42.54183464 -31.4081025 42.54183464 -26.9375 57.8125 C-22.19791804 60.7336301 -17.41305447 61.36096956 -11.9375 60.8125 C-8.5425314 59.98186757 -5.24131395 58.94987857 -1.9375 57.8125 C-1.9375 57.1525 -1.9375 56.4925 -1.9375 55.8125 C-1.2775 55.8125 -0.6175 55.8125 0.0625 55.8125 C0.31 55.131875 0.5575 54.45125 0.8125 53.75 C2.30447908 50.24384917 4.13085511 47.09629632 6.0625 43.8125 C7.0525 43.8125 8.0425 43.8125 9.0625 43.8125 C8.67721848 51.32548964 3.99325888 57.29375196 -1.375 62.25 C-7.23391102 67.40407962 -14.89082922 67.15141483 -22.25 67.125 C-23.13623047 67.14111328 -24.02246094 67.15722656 -24.93554688 67.17382812 C-35.10657739 67.18124682 -44.18952377 64.58084705 -51.9375 57.8125 C-59.7313561 49.23585486 -61.52380403 38.26034383 -61.2265625 26.9921875 C-60.28190416 16.60094574 -56.81954176 8.79885519 -48.9375 1.8125 C-35.37840701 -8.61995283 -14.13871363 -10.08592275 0 0 Z M-28.0625 -0.8125 C-33.2402809 6.43639326 -32.11783743 16.33664063 -31.9375 24.8125 C-27.3175 24.8125 -22.6975 24.8125 -17.9375 24.8125 C-17.88342646 21.58310778 -17.84379049 18.35462604 -17.8125 15.125 C-17.79574219 14.21298828 -17.77898438 13.30097656 -17.76171875 12.36132812 C-17.67624726 5.84728596 -17.67624726 5.84728596 -19.9375 -0.1875 C-20.5975 -0.8475 -21.2575 -1.5075 -21.9375 -2.1875 C-25.79962941 -2.54966752 -25.79962941 -2.54966752 -28.0625 -0.8125 Z " fill="#748BB2" transform="translate(695.9375,377.1875)"/>
<path d="M0 0 C5.66279436 4.79159523 7.63056808 9.65284039 9.0625 16.8125 C9.0625 20.4425 9.0625 24.0725 9.0625 27.8125 C-4.4675 27.8125 -17.9975 27.8125 -31.9375 27.8125 C-31.4081025 42.54183464 -31.4081025 42.54183464 -26.9375 57.8125 C-22.19791804 60.7336301 -17.41305447 61.36096956 -11.9375 60.8125 C-8.5425314 59.98186757 -5.24131395 58.94987857 -1.9375 57.8125 C-1.9375 57.1525 -1.9375 56.4925 -1.9375 55.8125 C-1.2775 55.8125 -0.6175 55.8125 0.0625 55.8125 C0.31 55.131875 0.5575 54.45125 0.8125 53.75 C2.30447908 50.24384917 4.13085511 47.09629632 6.0625 43.8125 C7.0525 43.8125 8.0425 43.8125 9.0625 43.8125 C8.67721848 51.32548964 3.99325888 57.29375196 -1.375 62.25 C-7.23391102 67.40407962 -14.89082922 67.15141483 -22.25 67.125 C-23.13623047 67.14111328 -24.02246094 67.15722656 -24.93554688 67.17382812 C-35.10657739 67.18124682 -44.18952377 64.58084705 -51.9375 57.8125 C-59.7313561 49.23585486 -61.52380403 38.26034383 -61.2265625 26.9921875 C-60.28190416 16.60094574 -56.81954176 8.79885519 -48.9375 1.8125 C-35.37840701 -8.61995283 -14.13871363 -10.08592275 0 0 Z M-28.0625 -0.8125 C-33.2402809 6.43639326 -32.11783743 16.33664063 -31.9375 24.8125 C-27.3175 24.8125 -22.6975 24.8125 -17.9375 24.8125 C-17.88342646 21.58310778 -17.84379049 18.35462604 -17.8125 15.125 C-17.79574219 14.21298828 -17.77898438 13.30097656 -17.76171875 12.36132812 C-17.67624726 5.84728596 -17.67624726 5.84728596 -19.9375 -0.1875 C-20.5975 -0.8475 -21.2575 -1.5075 -21.9375 -2.1875 C-25.79962941 -2.54966752 -25.79962941 -2.54966752 -28.0625 -0.8125 Z " fill="#495996" transform="translate(993.9375,377.1875)"/>
<path d="M0 0 C2.91543021 0.77666748 4.20829033 1.0378009 6.91796875 -0.22265625 C7.57796875 -1.21265625 8.23796875 -2.20265625 8.91796875 -3.22265625 C9.90796875 -3.22265625 10.89796875 -3.22265625 11.91796875 -3.22265625 C11.91796875 4.36734375 11.91796875 11.95734375 11.91796875 19.77734375 C7.91796875 18.77734375 7.91796875 18.77734375 6.6796875 16.921875 C6.14794922 15.76751953 6.14794922 15.76751953 5.60546875 14.58984375 C2.57947985 8.76063814 -1.10405683 5.14224869 -7.08203125 2.40234375 C-13.55919112 1.05293544 -18.8386025 2.02480235 -25.08203125 3.77734375 C-25.9359023 7.08301864 -25.9359023 7.08301864 -26.08203125 10.77734375 C-22.80056614 15.8115202 -16.84277657 16.66283203 -11.39453125 18.21484375 C-1.54513988 21.03749468 8.04135384 23.87338177 13.91796875 32.77734375 C17.00000878 40.26229811 17.02477978 48.48288011 14.35546875 56.08984375 C11.5301167 62.33535881 7.49190542 65.80151485 1.23828125 68.41015625 C-3.19239123 69.99757546 -7.28025565 70.27449394 -11.95703125 70.21484375 C-13.13676514 70.21109741 -13.13676514 70.21109741 -14.34033203 70.20727539 C-19.83118317 70.07983146 -24.23232577 69.16509022 -29.13671875 66.5546875 C-31.0656996 65.61370197 -31.0656996 65.61370197 -33.21484375 65.96875 C-35.44535683 66.73397733 -35.44535683 66.73397733 -37.08203125 69.77734375 C-38.40203125 69.77734375 -39.72203125 69.77734375 -41.08203125 69.77734375 C-41.08203125 61.19734375 -41.08203125 52.61734375 -41.08203125 43.77734375 C-39.59703125 43.28234375 -39.59703125 43.28234375 -38.08203125 42.77734375 C-37.61152344 43.75316406 -37.14101563 44.72898437 -36.65625 45.734375 C-36.02766586 47.01968883 -35.39874173 48.30483642 -34.76953125 49.58984375 C-34.46080078 50.23244141 -34.15207031 50.87503906 -33.83398438 51.53710938 C-32.23744432 54.78060653 -30.73193832 57.32312212 -28.08203125 59.77734375 C-28.08203125 60.43734375 -28.08203125 61.09734375 -28.08203125 61.77734375 C-20.51500088 64.90852873 -13.25150746 65.7837285 -5.08203125 64.77734375 C-2.803592 63.61322315 -0.89165052 62.58696302 0.91796875 60.77734375 C1.41828081 57.36162522 1.41828081 57.36162522 0.91796875 53.77734375 C-4.17822355 49.31817549 -12.11457183 47.76329462 -18.51953125 45.90234375 C-26.79571533 43.37057944 -34.39765814 40.44268156 -39.08203125 32.77734375 C-41.7149779 24.75191983 -41.56418136 17.26116375 -38.07421875 9.55078125 C-34.61445544 3.43318652 -30.00102314 -0.57664964 -23.20703125 -2.53515625 C-14.66037171 -4.21834159 -8.20311191 -2.91078165 0 0 Z " fill="#7288B6" transform="translate(752.08203125,374.22265625)"/>
<path d="M0 0 C12.21 0 24.42 0 37 0 C37 22.11 37 44.22 37 67 C39.64 67 42.28 67 45 67 C45 67.99 45 68.98 45 70 C30.15 70 15.3 70 0 70 C0 69.01 0 68.02 0 67 C2.64 67 5.28 67 8 67 C8 45.88 8 24.76 8 3 C5.36 3 2.72 3 0 3 C0 2.01 0 1.02 0 0 Z " fill="#19206D" transform="translate(1214,373)"/>
<path d="M0 0 C1.11246094 -0.01675781 2.22492188 -0.03351563 3.37109375 -0.05078125 C8.03073847 0.47963118 11.6298507 2.64668838 14.5625 6.3125 C16.41093505 11.0176074 16.11410361 15.9466244 14.25 20.5625 C11.96714273 24.28271185 10.72736377 25.92421208 6.5625 27.3125 C4.4408532 27.45804833 2.31393294 27.53330412 0.1875 27.5625 C-0.93398437 27.58828125 -2.05546875 27.6140625 -3.2109375 27.640625 C-7.66813059 27.18735113 -10.09238702 25.65761298 -13.22265625 22.52734375 C-14.85744573 19.54687547 -14.87108597 17.26063441 -14.875 13.875 C-14.89433594 12.76253906 -14.91367188 11.65007812 -14.93359375 10.50390625 C-14.33280192 6.63896981 -13.1870143 5.05234992 -10.4375 2.3125 C-7.09881529 -0.02387344 -4.0094034 0.01390545 0 0 Z " fill="#161C6B" transform="translate(1236.4375,335.6875)"/>
<path d="M0 0 C0.82693359 0.00451172 1.65386719 0.00902344 2.50585938 0.01367188 C4.52477146 0.02534189 6.54364574 0.04327282 8.5625 0.0625 C8.5625 0.3925 8.5625 0.7225 8.5625 1.0625 C3.2825 1.0625 -1.9975 1.0625 -7.4375 1.0625 C-7.4375 2.0525 -7.4375 3.0425 -7.4375 4.0625 C-7.9325 4.51625 -8.4275 4.97 -8.9375 5.4375 C-10.71639899 7.02474523 -10.71639899 7.02474523 -10.625 9.75 C-10.563125 10.513125 -10.50125 11.27625 -10.4375 12.0625 C-9.1175 12.0625 -7.7975 12.0625 -6.4375 12.0625 C-4.84395853 16.8431244 -4.73277087 21.19704054 -6.5 25.875 C-9.53835183 29.30539722 -12.9204435 30.6570017 -17.42578125 31.3828125 C-22.81140857 31.69653836 -26.07880583 30.17585298 -30.4375 27.0625 C-32.3249843 21.4000471 -32.12872365 15.29881182 -30.375 9.625 C-27.85028062 6.28585502 -25.19239746 4.78975283 -21.4375 3.0625 C-20.6125 2.670625 -19.7875 2.27875 -18.9375 1.875 C-12.74836748 -0.13646807 -6.43078241 -0.06736517 0 0 Z " fill="#2B327B" transform="translate(1171.4375,370.9375)"/>
<path d="M0 0 C3.160755 2.13167197 4.32031654 3.24263207 5.6875 6.8125 C6.38227575 11.94183212 6.27853493 15.67119117 3.875 20.3125 C1.38832413 23.15441528 -0.22696865 24.66368979 -4.01953125 25.18359375 C-13.43525409 25.38493625 -13.43525409 25.38493625 -17 22.4375 C-20.7677994 18.16053852 -20.65207 15.14430139 -20.59375 9.58203125 C-20.20058943 5.71049174 -18.97343722 3.61727167 -16.3125 0.8125 C-11.20324606 -2.30982185 -5.44091085 -1.95051521 0 0 Z " fill="#353F83" transform="translate(1121.3125,419.1875)"/>
<path d="M0 0 C1.90845703 0.15275391 1.90845703 0.15275391 3.85546875 0.30859375 C4.83128906 0.39238281 5.80710937 0.47617187 6.8125 0.5625 C6.91191096 4.5825263 6.98422063 8.60206963 7.03222656 12.62304688 C7.05225319 13.98873368 7.07948332 15.35433569 7.11425781 16.71972656 C7.16316432 18.69037102 7.18341347 20.66165983 7.203125 22.6328125 C7.22407227 23.81633301 7.24501953 24.99985352 7.26660156 26.21923828 C6.71810772 30.25745048 5.336261 32.40339889 2.8125 35.5625 C0.13594199 36.90077901 -2.01184052 36.76828556 -5 36.8125 C-6.03769531 36.83828125 -7.07539062 36.8640625 -8.14453125 36.890625 C-11.54901636 36.52351749 -13.41142285 35.5124248 -16.1875 33.5625 C-15.5275 32.2425 -14.8675 30.9225 -14.1875 29.5625 C-13.506875 29.7275 -12.82625 29.8925 -12.125 30.0625 C-8.12513809 30.74332756 -3.90333773 31.42041887 -0.1875 29.5625 C-0.1875 28.5725 -0.1875 27.5825 -0.1875 26.5625 C-0.76757812 26.62050781 -1.34765625 26.67851563 -1.9453125 26.73828125 C-6.31109297 26.99043029 -8.70370558 26.82638787 -12.625 24.6875 C-16.27972001 21.10404194 -16.94775903 16.51199106 -17.1875 11.5625 C-16.55018573 7.17211283 -15.92616638 5.28222622 -12.75 2.1875 C-8.25719487 -0.66159594 -5.19739759 -0.42914292 0 0 Z M-8.0625 5.8125 C-10.26999688 7.38904503 -10.26999688 7.38904503 -11.1875 9.5625 C-11.56919851 13.60850418 -11.54814827 15.91055889 -9.5625 19.5 C-7.3171964 21.82642969 -7.3171964 21.82642969 -4.125 22 C-1.00498195 21.74854438 -1.00498195 21.74854438 1.8125 19.5625 C2.17780232 16.43692041 2.17780232 16.43692041 2 12.9375 C1.95939453 11.15472656 1.95939453 11.15472656 1.91796875 9.3359375 C1.88316406 8.42070313 1.84835937 7.50546875 1.8125 6.5625 C-3.11755165 4.61521433 -3.11755165 4.61521433 -8.0625 5.8125 Z " fill="#313885" transform="translate(826.1875,530.4375)"/>
<path d="M0 0 C4.29 0 8.58 0 13 0 C13 1.65 13 3.3 13 5 C12.01 5.495 12.01 5.495 11 6 C12.14099629 9.48077209 13.28860184 12.95932886 14.4375 16.4375 C14.76298828 17.43072266 15.08847656 18.42394531 15.42382812 19.44726562 C15.89272461 20.86362305 15.89272461 20.86362305 16.37109375 22.30859375 C16.65911865 23.18314209 16.94714355 24.05769043 17.24389648 24.95874023 C17.82533284 26.96448895 17.82533284 26.96448895 19 28 C21.64 20.74 24.28 13.48 27 6 C26.34 5.67 25.68 5.34 25 5 C25 3.35 25 1.7 25 0 C28.96 0 32.92 0 37 0 C37 1.65 37 3.3 37 5 C36.01 5 35.02 5 34 5 C33.83201904 5.59280762 33.66403809 6.18561523 33.4909668 6.79638672 C31.57879686 13.37343189 29.29115047 19.74236299 26.8125 26.125 C26.44447266 27.08148437 26.07644531 28.03796875 25.69726562 29.0234375 C24.80144555 31.35024289 23.90232227 33.67571021 23 36 C20.36 36 17.72 36 15 36 C11.97039406 29.04263061 9.22261505 22.02542187 6.6875 14.875 C6.42114746 14.12871338 6.15479492 13.38242676 5.88037109 12.61352539 C4 7.24959091 4 7.24959091 4 5 C2.68 4.67 1.36 4.34 0 4 C0 2.68 0 1.36 0 0 Z " fill="#2A3181" transform="translate(1139,520)"/>
<path d="M0 0 C2.97 0 5.94 0 9 0 C9.33 4.29 9.66 8.58 10 13 C10.66 12.67 11.32 12.34 12 12 C19.14403292 11.53909465 19.14403292 11.53909465 22.4375 13.3125 C25.73637026 16.87527988 25.11770423 21.13952113 25.0625 25.6875 C25.05798828 26.38939453 25.05347656 27.09128906 25.04882812 27.81445312 C25.03706927 29.54300538 25.01913454 31.27151365 25 33 C26.32 33 27.64 33 29 33 C29 34.32 29 35.64 29 37 C24.71 37 20.42 37 16 37 C16 35.68 16 34.36 16 33 C16.99 33 17.98 33 19 33 C18.94014621 30.70759993 18.85140973 28.41593794 18.75 26.125 C18.70359375 24.84882812 18.6571875 23.57265625 18.609375 22.2578125 C18.34644977 18.98591982 18.34644977 18.98591982 16.265625 17.4921875 C13.54844182 16.74380683 13.54844182 16.74380683 9 18 C9 22.95 9 27.9 9 33 C9.99 33 10.98 33 12 33 C12 34.32 12 35.64 12 37 C8.04 37 4.08 37 0 37 C0 35.68 0 34.36 0 33 C0.99 33 1.98 33 3 33 C3 23.76 3 14.52 3 5 C2.01 5 1.02 5 0 5 C0 3.35 0 1.7 0 0 Z " fill="#2F3684" transform="translate(840,519)"/>
<path d="M0 0 C3.66666667 0 7.33333333 0 11 0 C11.73992188 -0.05800781 12.47984375 -0.11601563 13.2421875 -0.17578125 C14.11101563 -0.22089844 14.97984375 -0.26601563 15.875 -0.3125 C16.73867188 -0.37050781 17.60234375 -0.42851563 18.4921875 -0.48828125 C21 0 21 0 23.3046875 2 C25.53402518 5.94500309 25.45618634 8.87552848 25.25 13.3125 C25.23195313 14.05306641 25.21390625 14.79363281 25.1953125 15.55664062 C25.14847337 17.3716571 25.07673789 19.18600166 25 21 C26.32 21 27.64 21 29 21 C29 22.32 29 23.64 29 25 C24.71 25 20.42 25 16 25 C16 23.68 16 22.36 16 21 C17.32 21 18.64 21 20 21 C19.85764543 19.27054347 19.71095618 17.54144346 19.5625 15.8125 C19.48128906 14.84957031 19.40007813 13.88664063 19.31640625 12.89453125 C19.02333849 10.21350398 18.57296246 7.6337014 18 5 C13.65815798 5.18464366 13.65815798 5.18464366 10 7 C9.76472227 9.34987262 9.58613583 11.70556039 9.4375 14.0625 C9.35371094 15.35285156 9.26992188 16.64320313 9.18359375 17.97265625 C9.12300781 18.97167969 9.06242188 19.97070312 9 21 C9.99 21 10.98 21 12 21 C12 22.32 12 23.64 12 25 C8.04 25 4.08 25 0 25 C0 23.68 0 22.36 0 21 C0.99 21 1.98 21 3 21 C3 15.72 3 10.44 3 5 C2.01 5 1.02 5 0 5 C0 3.35 0 1.7 0 0 Z " fill="#2C3483" transform="translate(961,531)"/>
<path d="M0 0 C4 0 8 0 12 0 C12.78375 -0.03480469 13.5675 -0.06960938 14.375 -0.10546875 C15.24125 -0.13253906 16.1075 -0.15960937 17 -0.1875 C17.86625 -0.22230469 18.7325 -0.25710938 19.625 -0.29296875 C22 0 22 0 23.75 1.26171875 C26.60659642 5.23417315 26.10648432 9.49969299 26.0625 14.25 C26.05347656 15.51328125 26.04445313 16.7765625 26.03515625 18.078125 C26.02355469 19.04234375 26.01195312 20.0065625 26 21 C26.99 21 27.98 21 29 21 C29 22.32 29 23.64 29 25 C25.04 25 21.08 25 17 25 C17 23.68 17 22.36 17 21 C17.99 21 18.98 21 20 21 C19.85973717 18.68715544 19.71264442 16.37472409 19.5625 14.0625 C19.48128906 12.77472656 19.40007813 11.48695313 19.31640625 10.16015625 C19.35080812 7.13976043 19.35080812 7.13976043 18 6 C13.85723125 5.75266863 13.85723125 5.75266863 10 7 C9.52998967 10.27555608 9.52998967 10.27555608 9.375 14.0625 C9.30023437 15.35285156 9.22546875 16.64320313 9.1484375 17.97265625 C9.09945312 18.97167969 9.05046875 19.97070312 9 21 C10.32 21 11.64 21 13 21 C13 22.32 13 23.64 13 25 C8.71 25 4.42 25 0 25 C0 23.68 0 22.36 0 21 C1.32 21 2.64 21 4 21 C4 15.72 4 10.44 4 5 C2.68 5 1.36 5 0 5 C0 3.35 0 1.7 0 0 Z " fill="#272F80" transform="translate(733,531)"/>
<path d="M0 0 C4 0 8 0 12 0 C13.04994141 -0.06960938 13.04994141 -0.06960938 14.12109375 -0.140625 C20.35555426 -0.43500088 20.35555426 -0.43500088 23.5 1.6875 C26.25964095 5.94194646 26.11698723 10.35416204 26.0625 15.3125 C26.05347656 16.38113281 26.04445313 17.44976563 26.03515625 18.55078125 C26.02355469 19.35902344 26.01195312 20.16726563 26 21 C26.99 21 27.98 21 29 21 C29 22.32 29 23.64 29 25 C24.71 25 20.42 25 16 25 C16 23.68 16 22.36 16 21 C17.32 21 18.64 21 20 21 C19.85973717 18.68715544 19.71264442 16.37472409 19.5625 14.0625 C19.48128906 12.77472656 19.40007813 11.48695313 19.31640625 10.16015625 C19.35080812 7.13976043 19.35080812 7.13976043 18 6 C13.85723125 5.75266863 13.85723125 5.75266863 10 7 C9.52998967 10.27555608 9.52998967 10.27555608 9.375 14.0625 C9.30023437 15.35285156 9.22546875 16.64320313 9.1484375 17.97265625 C9.09945312 18.97167969 9.05046875 19.97070312 9 21 C10.32 21 11.64 21 13 21 C13 22.32 13 23.64 13 25 C8.71 25 4.42 25 0 25 C0 23.68 0 22.36 0 21 C1.32 21 2.64 21 4 21 C4 15.72 4 10.44 4 5 C2.68 5 1.36 5 0 5 C0 3.35 0 1.7 0 0 Z " fill="#272E7F" transform="translate(649,531)"/>
<path d="M0 0 C4 0 8 0 12 0 C12.78375 -0.03480469 13.5675 -0.06960938 14.375 -0.10546875 C15.24125 -0.13253906 16.1075 -0.15960937 17 -0.1875 C17.86625 -0.22230469 18.7325 -0.25710938 19.625 -0.29296875 C22 0 22 0 23.75 1.26171875 C26.60659642 5.23417315 26.10648432 9.49969299 26.0625 14.25 C26.05347656 15.51328125 26.04445313 16.7765625 26.03515625 18.078125 C26.02355469 19.04234375 26.01195312 20.0065625 26 21 C26.99 21 27.98 21 29 21 C29 22.32 29 23.64 29 25 C25.04 25 21.08 25 17 25 C17 23.68 17 22.36 17 21 C17.99 21 18.98 21 20 21 C19.85973717 18.68715544 19.71264442 16.37472409 19.5625 14.0625 C19.48128906 12.77472656 19.40007813 11.48695313 19.31640625 10.16015625 C19.35080812 7.13976043 19.35080812 7.13976043 18 6 C13.85723125 5.75266863 13.85723125 5.75266863 10 7 C9.52998967 10.27555608 9.52998967 10.27555608 9.375 14.0625 C9.30023437 15.35285156 9.22546875 16.64320313 9.1484375 17.97265625 C9.09945312 18.97167969 9.05046875 19.97070312 9 21 C10.32 21 11.64 21 13 21 C13 22.32 13 23.64 13 25 C8.71 25 4.42 25 0 25 C0 23.68 0 22.36 0 21 C1.32 21 2.64 21 4 21 C4 15.72 4 10.44 4 5 C2.68 5 1.36 5 0 5 C0 3.35 0 1.7 0 0 Z " fill="#272F80" transform="translate(542,531)"/>
<path d="M0 0 C4 0 8 0 12 0 C13.04994141 -0.06960938 13.04994141 -0.06960938 14.12109375 -0.140625 C15.26771484 -0.19476562 15.26771484 -0.19476562 16.4375 -0.25 C17.19933594 -0.29640625 17.96117187 -0.3428125 18.74609375 -0.390625 C21 0 21 0 23.26953125 1.46875 C25.80439872 5.1766374 25.43876969 8.37199524 25.25 12.75 C25.23195313 13.54277344 25.21390625 14.33554687 25.1953125 15.15234375 C25.14833082 17.10208348 25.07659044 19.05119878 25 21 C26.32 21 27.64 21 29 21 C29 22.32 29 23.64 29 25 C24.71 25 20.42 25 16 25 C16 23.68 16 22.36 16 21 C17.32 21 18.64 21 20 21 C19.85930804 18.87465341 19.71229079 16.74972471 19.5625 14.625 C19.48128906 13.44164062 19.40007812 12.25828125 19.31640625 11.0390625 C19.18915064 8.08481099 19.18915064 8.08481099 18 6 C15.66705225 5.95758277 13.33297433 5.95907063 11 6 C9.05909174 7.94090826 9.60080565 11.47293902 9.4375 14.0625 C9.35371094 15.35285156 9.26992187 16.64320313 9.18359375 17.97265625 C9.12300781 18.97167969 9.06242187 19.97070312 9 21 C10.32 21 11.64 21 13 21 C13 22.32 13 23.64 13 25 C8.71 25 4.42 25 0 25 C0 23.68 0 22.36 0 21 C1.32 21 2.64 21 4 21 C4 15.72 4 10.44 4 5 C2.68 5 1.36 5 0 5 C0 3.35 0 1.7 0 0 Z " fill="#262E7F" transform="translate(1031,531)"/>
<path d="M0 0 C3.16419394 2.73271295 3.92255236 4.32050657 4.75 8.375 C4.75 10.025 4.75 11.675 4.75 13.375 C-1.19 13.375 -7.13 13.375 -13.25 13.375 C-11.27 16.345 -11.27 16.345 -9.25 19.375 C-5.05507261 19.90889985 -1.34175719 19.36694114 2.75 18.375 C3.08 19.695 3.41 21.015 3.75 22.375 C-0.26650828 25.58820662 -3.83223826 25.941791 -8.8046875 25.80078125 C-12.83898125 25.09832435 -14.52268183 23.38204311 -17.25 20.375 C-19.20970279 14.49589163 -19.21682847 8.41608232 -16.5625 2.8125 C-11.76221978 -2.24725483 -6.24595981 -3.1229799 0 0 Z M-11.0625 4.75 C-12.4466722 6.30868783 -12.4466722 6.30868783 -12.25 8.375 C-8.62 8.375 -4.99 8.375 -1.25 8.375 C-2.82836298 4.69122777 -2.82836298 4.69122777 -4.25 3.375 C-7.17728993 3.06686422 -8.67560445 2.93925165 -11.0625 4.75 Z " fill="#3A418A" transform="translate(1120.25,531.625)"/>
<path d="M0 0 C3.11697664 2.12219686 4.68609443 3.60148043 5.5234375 7.33203125 C5.78137087 9.54537845 5.90032409 11.77390473 6 14 C0.06 14 -5.88 14 -12 14 C-10.02 16.97 -10.02 16.97 -8 20 C-3.80507261 20.53389985 -0.09175719 19.99194114 4 19 C4.33 20.32 4.66 21.64 5 23 C0.98349172 26.21320662 -2.58223826 26.566791 -7.5546875 26.42578125 C-11.58898125 25.72332435 -13.27268183 24.00704311 -16 21 C-17.95970279 15.12089163 -17.96682847 9.04108232 -15.3125 3.4375 C-10.78871073 -1.33081842 -6.14641638 -1.87496742 0 0 Z M-9.8125 5.375 C-11.1966722 6.93368783 -11.1966722 6.93368783 -11 9 C-7.37 9 -3.74 9 0 9 C-1.57836298 5.31622777 -1.57836298 5.31622777 -3 4 C-5.92728993 3.69186422 -7.42560445 3.56425165 -9.8125 5.375 Z " fill="#39408A" transform="translate(1275,531)"/>
<path d="M0 0 C2.97 0 5.94 0 9 0 C9.33 6.6 9.66 13.2 10 20 C15.47825081 20.4472136 15.47825081 20.4472136 18 19 C18.47001033 15.72444392 18.47001033 15.72444392 18.625 11.9375 C18.69976563 10.64714844 18.77453125 9.35679687 18.8515625 8.02734375 C18.90054687 7.02832031 18.94953125 6.02929688 19 5 C18.01 5 17.02 5 16 5 C16 3.35 16 1.7 16 0 C18.97 0 21.94 0 25 0 C25 6.93 25 13.86 25 21 C25.99 21 26.98 21 28 21 C28 22.32 28 23.64 28 25 C27.38511719 24.98839844 26.77023437 24.97679687 26.13671875 24.96484375 C24.92435547 24.95130859 24.92435547 24.95130859 23.6875 24.9375 C22.88699219 24.92589844 22.08648438 24.91429687 21.26171875 24.90234375 C18.83138666 24.90342145 18.83138666 24.90342145 16 26 C12.11281936 26.35992413 9.75323248 26.40976717 6.29296875 24.52734375 C3.4255063 21.36678462 3.47235716 19.73274752 3.56054688 15.60546875 C3.62338867 14.43951172 3.62338867 14.43951172 3.6875 13.25 C3.71005859 12.45722656 3.73261719 11.66445313 3.75585938 10.84765625 C3.81459529 8.8976238 3.90427346 6.94856688 4 5 C2.68 5 1.36 5 0 5 C0 3.35 0 1.7 0 0 Z " fill="#2F3684" transform="translate(1223,531)"/>
<path d="M0 0 C0.94746094 -0.01675781 1.89492187 -0.03351562 2.87109375 -0.05078125 C6.01338404 0.37335953 7.34069564 1.07045141 9.5625 3.3125 C11.08470887 6.85103791 10.66009978 10.77172327 10.625 14.5625 C10.61597656 15.82578125 10.60695313 17.0890625 10.59765625 18.390625 C10.58605469 19.35484375 10.57445312 20.3190625 10.5625 21.3125 C11.2225 21.3125 11.8825 21.3125 12.5625 21.3125 C12.5625 22.6325 12.5625 23.9525 12.5625 25.3125 C9.66675486 25.61620743 6.77588331 25.8812095 3.875 26.125 C3.05837891 26.21458984 2.24175781 26.30417969 1.40039062 26.39648438 C-3.06378661 26.73988262 -4.78509385 26.80431387 -8.484375 24.015625 C-10.4375 21.3125 -10.4375 21.3125 -11 18.25 C-10.31558796 14.67584823 -9.28931131 13.51246872 -6.4375 11.3125 C-3.68671116 10.39557039 -2.07801087 10.20363917 0.75 10.25 C2.6371875 10.2809375 2.6371875 10.2809375 4.5625 10.3125 C4.2325 8.9925 3.9025 7.6725 3.5625 6.3125 C-0.41946457 5.25845055 -3.41945309 5.47151344 -7.4375 6.3125 C-7.7675 4.9925 -8.0975 3.6725 -8.4375 2.3125 C-5.11533762 0.09772508 -3.88716677 0.01582293 0 0 Z M-5.4375 17.3125 C-4.64632096 19.31233534 -4.64632096 19.31233534 -3.4375 21.3125 C0.18576739 22.5202558 1.20396369 21.85561128 4.5625 20.3125 C4.5625 18.3325 4.5625 16.3525 4.5625 14.3125 C0.11400031 14.0091932 -2.11902292 14.24929039 -5.4375 17.3125 Z " fill="#343C87" transform="translate(1188.4375,530.6875)"/>
<path d="M0 0 C1.56041016 -0.05994141 1.56041016 -0.05994141 3.15234375 -0.12109375 C6.0625 0.4375 6.0625 0.4375 8.42578125 2.4453125 C10.58006944 6.38370093 10.51701317 9.349034 10.3125 13.75 C10.29445313 14.49056641 10.27640625 15.23113281 10.2578125 15.99414062 C10.21097337 17.8091571 10.13923789 19.62350166 10.0625 21.4375 C11.0525 21.4375 12.0425 21.4375 13.0625 21.4375 C13.0625 22.7575 13.0625 24.0775 13.0625 25.4375 C12.43601562 25.42589844 11.80953125 25.41429687 11.1640625 25.40234375 C9.93816406 25.38880859 9.93816406 25.38880859 8.6875 25.375 C7.46933594 25.35759766 7.46933594 25.35759766 6.2265625 25.33984375 C4.01312858 25.29283666 4.01312858 25.29283666 2.0625 26.4375 C-5.12962843 27.01751036 -5.12962843 27.01751036 -8.375 24.6875 C-9.95483445 22.41253839 -10.770713 21.18948557 -10.9375 18.4375 C-10.16549338 15.27227286 -9.32857126 13.78116868 -6.875 11.625 C-2.8474584 9.99684489 0.77473668 10.18527863 5.0625 10.4375 C4.0725 8.7875 3.0825 7.1375 2.0625 5.4375 C-1.2375 5.7675 -4.5375 6.0975 -7.9375 6.4375 C-8.2675 5.1175 -8.5975 3.7975 -8.9375 2.4375 C-5.53402194 0.16851463 -4.01829464 0.08443882 0 0 Z M-4.9375 16.4375 C-4.6075 18.0875 -4.2775 19.7375 -3.9375 21.4375 C-1.08788233 22.59845535 -0.09804927 22.50317925 2.8125 21.3125 C5.3525369 19.63369237 5.3525369 19.63369237 5.375 16.75 C5.271875 15.986875 5.16875 15.22375 5.0625 14.4375 C-0.25920494 14.14187633 -0.25920494 14.14187633 -4.9375 16.4375 Z " fill="#2F3784" transform="translate(630.9375,530.5625)"/>
<path d="M0 0 C3 2.4375 3 2.4375 5 5 C5 5.66 5 6.32 5 7 C2.125 7.125 2.125 7.125 -1 7 C-1.66 6.34 -2.32 5.68 -3 5 C-5.58354218 4.83312552 -5.58354218 4.83312552 -8 5 C-8 5.99 -8 6.98 -8 8 C-7.30132813 8.33773437 -6.60265625 8.67546875 -5.8828125 9.0234375 C-4.97273437 9.46945312 -4.06265625 9.91546875 -3.125 10.375 C-2.22007812 10.81585937 -1.31515625 11.25671875 -0.3828125 11.7109375 C2 13 2 13 4 15 C4.4375 18.375 4.4375 18.375 4 22 C1.86547847 24.6853658 0.28612453 25.79195044 -3.125 26.34375 C-8.15784631 26.54778431 -11.63641789 25.6852813 -16 23 C-16 21.35 -16 19.7 -16 18 C-13.1875 17.8125 -13.1875 17.8125 -10 18 C-9 19 -8 20 -7 21 C-4.34533951 20.76956136 -4.34533951 20.76956136 -2 20 C-2.6823955 16.80561349 -2.6823955 16.80561349 -5.46875 15.68359375 C-6.4690625 15.27238281 -7.469375 14.86117187 -8.5 14.4375 C-13.89764419 12.20471162 -13.89764419 12.20471162 -15 10 C-15.4000134 6.31987667 -15.51029897 4.6510711 -13.1875 1.6875 C-9.02327844 -1.52489949 -4.90312803 -1.42133478 0 0 Z " fill="#363D88" transform="translate(592,531)"/>
<path d="M0 0 C0.66 0.556875 1.32 1.11375 2 1.6875 C2 3.0075 2 4.3275 2 5.6875 C0.02 5.6875 -1.96 5.6875 -4 5.6875 C-4 5.0275 -4 4.3675 -4 3.6875 C-6.31 3.6875 -8.62 3.6875 -11 3.6875 C-11 4.6775 -11 5.6675 -11 6.6875 C-10.30132813 6.95304688 -9.60265625 7.21859375 -8.8828125 7.4921875 C-7.51769531 8.02199219 -7.51769531 8.02199219 -6.125 8.5625 C-4.76761719 9.08457031 -4.76761719 9.08457031 -3.3828125 9.6171875 C-1 10.6875 -1 10.6875 1 12.6875 C2.04953716 16.32051326 2.30625304 18.03124348 0.6875 21.5 C-1 23.6875 -1 23.6875 -3 24.6875 C-8.77058356 25.28764069 -12.95665982 24.79109396 -18 21.6875 C-18 20.0375 -18 18.3875 -18 16.6875 C-15.1875 16.5 -15.1875 16.5 -12 16.6875 C-10.9805881 17.66770375 -9.97753644 18.66553008 -9 19.6875 C-6.83700789 19.45992269 -6.83700789 19.45992269 -5 18.6875 C-5 17.6975 -5 16.7075 -5 15.6875 C-5.69867187 15.42195312 -6.39734375 15.15640625 -7.1171875 14.8828125 C-8.02726563 14.52960937 -8.93734375 14.17640625 -9.875 13.8125 C-10.77992188 13.46445312 -11.68484375 13.11640625 -12.6171875 12.7578125 C-15 11.6875 -15 11.6875 -17 9.6875 C-17.56833559 2.52647158 -17.56833559 2.52647158 -15.6875 -0.25 C-10.61847962 -3.44160543 -5.18020565 -2.26633997 0 0 Z " fill="#353C87" transform="translate(911,532.3125)"/>
<path d="M0 0 C2.5 1.3125 2.5 1.3125 4 3 C4 4.32 4 5.64 4 7 C1.625 7.125 1.625 7.125 -1 7 C-1.66 6.34 -2.32 5.68 -3 5 C-5.58354218 4.83312552 -5.58354218 4.83312552 -8 5 C-8 5.99 -8 6.98 -8 8 C-7.30132813 8.32613281 -6.60265625 8.65226563 -5.8828125 8.98828125 C-4.97273437 9.42527344 -4.06265625 9.86226562 -3.125 10.3125 C-2.22007812 10.74175781 -1.31515625 11.17101562 -0.3828125 11.61328125 C2 13 2 13 4 16 C4.4375 18.9375 4.4375 18.9375 4 22 C1.86466914 24.61750234 0.24133454 25.79691402 -3.125 26.34765625 C-8.15796541 26.54319376 -11.63549813 25.68584731 -16 23 C-16 21.35 -16 19.7 -16 18 C-13.1875 17.8125 -13.1875 17.8125 -10 18 C-8.97980427 18.9793879 -7.97850195 19.97895449 -7 21 C-4.37429296 21.25069913 -4.37429296 21.25069913 -2 21 C-2.07752298 19.06445266 -2.07752298 19.06445266 -3 17 C-5.50048534 15.49144922 -5.50048534 15.49144922 -8.5 14.375 C-13.90630048 12.18739903 -13.90630048 12.18739903 -15 10 C-15.4000134 6.31987667 -15.51029897 4.6510711 -13.1875 1.6875 C-8.93712996 -1.59135688 -5.0059036 -1.13816319 0 0 Z " fill="#353C87" transform="translate(783,531)"/>
<path d="M0 0 C0.33 0.99 0.66 1.98 1 3 C0.67 3.66 0.34 4.32 0 5 C-2.31 5 -4.62 5 -7 5 C-7.66 7.31 -8.32 9.62 -9 12 C-7.02 12 -5.04 12 -3 12 C-3 13.32 -3 14.64 -3 16 C-4.98 16 -6.96 16 -9 16 C-9 21.61 -9 27.22 -9 33 C-7.68 33 -6.36 33 -5 33 C-5 34.32 -5 35.64 -5 37 C-9.29 37 -13.58 37 -18 37 C-18 35.68 -18 34.36 -18 33 C-16.68 33 -15.36 33 -14 33 C-14 27.39 -14 21.78 -14 16 C-15.32 16 -16.64 16 -18 16 C-18 14.68 -18 13.36 -18 12 C-16.68 12 -15.36 12 -14 12 C-14.12375 10.14375 -14.12375 10.14375 -14.25 8.25 C-14.21890983 5.32752441 -14.06715887 4.12210703 -12.625 1.5 C-8.56988944 -0.81720603 -4.56419136 -0.3135704 0 0 Z " fill="#222A7D" transform="translate(1013,519)"/>
<path d="M0 0 C4.29 0 8.58 0 13 0 C13 1.65 13 3.3 13 5 C11.68 5 10.36 5 9 5 C9 13.91 9 22.82 9 32 C10.32 32 11.64 32 13 32 C13 33.32 13 34.64 13 36 C8.71 36 4.42 36 0 36 C0 34.68 0 33.36 0 32 C0.99 32 1.98 32 3 32 C3 23.09 3 14.18 3 5 C2.01 5 1.02 5 0 5 C0 3.35 0 1.7 0 0 Z " fill="#303885" transform="translate(942,520)"/>
<path d="M0 0 C3.96 0 7.92 0 12 0 C12 1.65 12 3.3 12 5 C11.01 5 10.02 5 9 5 C9 13.91 9 22.82 9 32 C9.99 32 10.98 32 12 32 C12 33.32 12 34.64 12 36 C8.04 36 4.08 36 0 36 C0 34.68 0 33.36 0 32 C0.99 32 1.98 32 3 32 C3 23.09 3 14.18 3 5 C2.01 5 1.02 5 0 5 C0 3.35 0 1.7 0 0 Z " fill="#2A3181" transform="translate(715,520)"/>
<path d="M0 0 C3.96 0 7.92 0 12 0 C12 1.65 12 3.3 12 5 C11.01 5 10.02 5 9 5 C9 13.91 9 22.82 9 32 C9.99 32 10.98 32 12 32 C12 33.32 12 34.64 12 36 C8.04 36 4.08 36 0 36 C0 34.68 0 33.36 0 32 C0.99 32 1.98 32 3 32 C3 23.09 3 14.18 3 5 C2.01 5 1.02 5 0 5 C0 3.35 0 1.7 0 0 Z " fill="#2A3181" transform="translate(524,520)"/>
<path d="M0 0 C2.97 0 5.94 0 9 0 C9 10.89 9 21.78 9 33 C9.99 33 10.98 33 12 33 C12 34.32 12 35.64 12 37 C8.04 37 4.08 37 0 37 C0 35.68 0 34.36 0 33 C0.99 33 1.98 33 3 33 C3 23.76 3 14.52 3 5 C2.01 5 1.02 5 0 5 C0 3.35 0 1.7 0 0 Z " fill="#323986" transform="translate(1207,519)"/>
<path d="M0 0 C0 2.64 0 5.28 0 8 C1.65 8 3.3 8 5 8 C5 9.32 5 10.64 5 12 C3.35 12 1.7 12 0 12 C0 17.61 0 23.22 0 29 C1.98 29 3.96 29 6 29 C6.33 30.32 6.66 31.64 7 33 C3.89138092 34.55430954 0.34175253 34.88672245 -3 34 C-6.71537954 29.79312406 -6.3605438 25.4808654 -6.1875 20.1875 C-6.16719727 19.00510742 -6.16719727 19.00510742 -6.14648438 17.79882812 C-6.11133456 15.86558831 -6.05753361 13.93270318 -6 12 C-7.32 12 -8.64 12 -10 12 C-10 10.68 -10 9.36 -10 8 C-8.68 8 -7.36 8 -6 8 C-6 6.02 -6 4.04 -6 2 C-2.25 0 -2.25 0 0 0 Z " fill="#3D448C" transform="translate(610,523)"/>
<path d="M0 0 C0 2.64 0 5.28 0 8 C1.98 8 3.96 8 6 8 C6 9.32 6 10.64 6 12 C4.02 12 2.04 12 0 12 C0.33 17.28 0.66 22.56 1 28 C3.94729537 29.15811388 3.94729537 29.15811388 7 29 C7.33 30.32 7.66 31.64 8 33 C4.89079391 34.55460305 1.36916972 34.72720693 -2 34 C-4.16363917 32.20990391 -4.91109563 30.77372098 -5.23168945 27.98364258 C-5.29579932 25.56509162 -5.26117969 23.16820533 -5.1875 20.75 C-5.17396484 19.90953125 -5.16042969 19.0690625 -5.14648438 18.203125 C-5.11123464 16.13514062 -5.0574302 14.06748729 -5 12 C-6.32 12 -7.64 12 -9 12 C-9 10.68 -9 9.36 -9 8 C-7.68 8 -6.36 8 -5 8 C-5.061875 7.05125 -5.12375 6.1025 -5.1875 5.125 C-5.125625 4.09375 -5.06375 3.0625 -5 2 C-2 0 -2 0 0 0 Z " fill="#2D3583" transform="translate(1090,523)"/>
<path d="M0 0 C0 2.64 0 5.28 0 8 C1.98 8 3.96 8 6 8 C6 9.32 6 10.64 6 12 C4.02 12 2.04 12 0 12 C0.33 17.28 0.66 22.56 1 28 C3.94729537 29.15811388 3.94729537 29.15811388 7 29 C7.33 30.32 7.66 31.64 8 33 C4.89079391 34.55460305 1.36916972 34.72720693 -2 34 C-4.16363917 32.20990391 -4.91109563 30.77372098 -5.23168945 27.98364258 C-5.29579932 25.56509162 -5.26117969 23.16820533 -5.1875 20.75 C-5.17396484 19.90953125 -5.16042969 19.0690625 -5.14648438 18.203125 C-5.11123464 16.13514062 -5.0574302 14.06748729 -5 12 C-6.32 12 -7.64 12 -9 12 C-9 10.68 -9 9.36 -9 8 C-7.68 8 -6.36 8 -5 8 C-5.061875 7.05125 -5.12375 6.1025 -5.1875 5.125 C-5.125625 4.09375 -5.06375 3.0625 -5 2 C-2 0 -2 0 0 0 Z " fill="#2D3583" transform="translate(691,523)"/>
<path d="M0 0 C0 2.64 0 5.28 0 8 C1.98 8 3.96 8 6 8 C6 9.32 6 10.64 6 12 C4.02 12 2.04 12 0 12 C0.33 17.28 0.66 22.56 1 28 C3.94729537 29.15811388 3.94729537 29.15811388 7 29 C7.33 30.32 7.66 31.64 8 33 C4.89079391 34.55460305 1.36916972 34.72720693 -2 34 C-4.16363917 32.20990391 -4.91109563 30.77372098 -5.23168945 27.98364258 C-5.29579932 25.56509162 -5.26117969 23.16820533 -5.1875 20.75 C-5.17396484 19.90953125 -5.16042969 19.0690625 -5.14648438 18.203125 C-5.11123464 16.13514062 -5.0574302 14.06748729 -5 12 C-6.32 12 -7.64 12 -9 12 C-9 10.68 -9 9.36 -9 8 C-7.68 8 -6.36 8 -5 8 C-5 6.02 -5 4.04 -5 2 C-1.125 0 -1.125 0 0 0 Z " fill="#252D7E" transform="translate(881,523)"/>
<path d="M0 0 C2.97 0 5.94 0 9 0 C9 6.93 9 13.86 9 21 C10.32 21 11.64 21 13 21 C13 22.32 13 23.64 13 25 C8.71 25 4.42 25 0 25 C0 23.68 0 22.36 0 21 C0.99 21 1.98 21 3 21 C3 15.72 3 10.44 3 5 C2.01 5 1.02 5 0 5 C0 3.35 0 1.7 0 0 Z " fill="#333B86" transform="translate(1014,531)"/>
<path d="M0 0 C2.97 0 5.94 0 9 0 C9 6.93 9 13.86 9 21 C10.32 21 11.64 21 13 21 C13 22.32 13 23.64 13 25 C8.71 25 4.42 25 0 25 C0 23.68 0 22.36 0 21 C1.32 21 2.64 21 4 21 C4 15.72 4 10.44 4 5 C2.68 5 1.36 5 0 5 C0 3.35 0 1.7 0 0 Z " fill="#222A7D" transform="translate(1065,531)"/>
<path d="M0 0 C2.97 0 5.94 0 9 0 C9 0.66 9 1.32 9 2 C9.66 2.33 10.32 2.66 11 3 C10.01 4.485 10.01 4.485 9 6 C8.70008931 8.58885171 8.49134775 11.09149082 8.375 13.6875 C8.31699219 14.7403418 8.31699219 14.7403418 8.2578125 15.81445312 C8.1637666 17.54254655 8.0808032 19.27123675 8 21 C9.32 21 10.64 21 12 21 C12 22.32 12 23.64 12 25 C8.04 25 4.08 25 0 25 C0 23.68 0 22.36 0 21 C0.99 21 1.98 21 3 21 C3 15.72 3 10.44 3 5 C2.01 5 1.02 5 0 5 C0 3.35 0 1.7 0 0 Z " fill="#232B7D" transform="translate(961,531)"/>
<path d="M0 0 C2.97 0 5.94 0 9 0 C9 6.93 9 13.86 9 21 C10.32 21 11.64 21 13 21 C13 22.32 13 23.64 13 25 C8.71 25 4.42 25 0 25 C0 23.68 0 22.36 0 21 C1.32 21 2.64 21 4 21 C4 15.72 4 10.44 4 5 C2.68 5 1.36 5 0 5 C0 3.35 0 1.7 0 0 Z " fill="#222A7D" transform="translate(792,531)"/>
<path d="M0 0 C2.97 0 5.94 0 9 0 C9 0.66 9 1.32 9 2 C9.66 2.33 10.32 2.66 11 3 C10.01 4.485 10.01 4.485 9 6 C8.70008931 8.58885171 8.49134775 11.09149082 8.375 13.6875 C8.31699219 14.7403418 8.31699219 14.7403418 8.2578125 15.81445312 C8.1637666 17.54254655 8.0808032 19.27123675 8 21 C9.65 21 11.3 21 13 21 C13 22.32 13 23.64 13 25 C8.71 25 4.42 25 0 25 C0 23.68 0 22.36 0 21 C1.32 21 2.64 21 4 21 C4 15.72 4 10.44 4 5 C2.68 5 1.36 5 0 5 C0 3.35 0 1.7 0 0 Z " fill="#1C2479" transform="translate(1031,531)"/>
<path d="M0 0 C2.31 0 4.62 0 7 0 C7 0.66 7 1.32 7 2 C7.66 2.33 8.32 2.66 9 3 C8.83628906 3.52078125 8.67257812 4.0415625 8.50390625 4.578125 C7.85941341 7.6756875 7.90588411 10.58841094 7.9375 13.75 C7.95103516 15.50570312 7.95103516 15.50570312 7.96484375 17.296875 C7.97644531 18.18890625 7.98804688 19.0809375 8 20 C9.32 20 10.64 20 12 20 C12 21.32 12 22.64 12 24 C7.71 24 3.42 24 -1 24 C-1 22.68 -1 21.36 -1 20 C0.32 20 1.64 20 3 20 C3 14.72 3 9.44 3 4 C2.01 4 1.02 4 0 4 C0 2.68 0 1.36 0 0 Z " fill="#151E76" transform="translate(650,532)"/>
<path d="M0 0 C2.31 0 4.62 0 7 0 C7 0.66 7 1.32 7 2 C7.66 2.33 8.32 2.66 9 3 C8.67 8.61 8.34 14.22 8 20 C9.32 20 10.64 20 12 20 C12 21.32 12 22.64 12 24 C7.71 24 3.42 24 -1 24 C-1 22.68 -1 21.36 -1 20 C0.65 20 2.3 20 4 20 C4 14.39 4 8.78 4 3 C2.68 3 1.36 3 0 3 C0 2.01 0 1.02 0 0 Z " fill="#0D1571" transform="translate(734,532)"/>
<path d="M0 0 C2.31 0 4.62 0 7 0 C7 0.66 7 1.32 7 2 C7.66 2.33 8.32 2.66 9 3 C8.67 8.61 8.34 14.22 8 20 C9.32 20 10.64 20 12 20 C12 21.32 12 22.64 12 24 C7.71 24 3.42 24 -1 24 C-1 22.68 -1 21.36 -1 20 C0.65 20 2.3 20 4 20 C4 14.39 4 8.78 4 3 C2.68 3 1.36 3 0 3 C0 2.01 0 1.02 0 0 Z " fill="#0C1571" transform="translate(543,532)"/>
<path d="M0 0 C1.43739513 -0.02712066 2.87493863 -0.04645067 4.3125 -0.0625 C5.51326172 -0.07990234 5.51326172 -0.07990234 6.73828125 -0.09765625 C9 0 9 0 12 1 C12 1.66 12 2.32 12 3 C14.97 3.495 14.97 3.495 18 4 C18 4.33 18 4.66 18 5 C15.03 5.66 12.06 6.32 9 7 C8.67 5.02 8.34 3.04 8 1 C5.69 1 3.38 1 1 1 C1 1.99 1 2.98 1 4 C2.32 4 3.64 4 5 4 C5 9.61 5 15.22 5 21 C4.67 21 4.34 21 4 21 C4 15.72 4 10.44 4 5 C2.68 5 1.36 5 0 5 C0 3.35 0 1.7 0 0 Z " fill="#7378AA" transform="translate(733,531)"/>
<path d="M0 0 C1.43739513 -0.02712066 2.87493863 -0.04645067 4.3125 -0.0625 C5.51326172 -0.07990234 5.51326172 -0.07990234 6.73828125 -0.09765625 C9 0 9 0 12 1 C12 1.66 12 2.32 12 3 C14.97 3.495 14.97 3.495 18 4 C18 4.33 18 4.66 18 5 C15.03 5.66 12.06 6.32 9 7 C8.67 5.02 8.34 3.04 8 1 C5.69 1 3.38 1 1 1 C1 1.99 1 2.98 1 4 C2.32 4 3.64 4 5 4 C5 9.61 5 15.22 5 21 C4.67 21 4.34 21 4 21 C4 15.72 4 10.44 4 5 C2.68 5 1.36 5 0 5 C0 3.35 0 1.7 0 0 Z " fill="#7579AB" transform="translate(542,531)"/>
<path d="M0 0 C1.32 0 2.64 0 4 0 C3.52662341 4.165714 3.0722891 7.03365191 0 10 C-1.98 10.66 -3.96 11.32 -6 12 C-4.02 8.04 -2.04 4.08 0 0 Z " fill="#8693BA" transform="translate(924,421)"/>
<path d="M0 0 C0.38218767 1.65614657 0.71395102 3.32457024 1 5 C0 6 0 6 -2.5 6.125 C-5 6 -5 6 -6 5 C-6.04063832 3.33382885 -6.042721 1.66611905 -6 0 C-3.50907189 -1.24546405 -2.58919267 -0.7767578 0 0 Z " fill="#444B90" transform="translate(1074,520)"/>
<path d="M0 0 C2.625 0.375 2.625 0.375 5 1 C5.042721 2.66611905 5.04063832 4.33382885 5 6 C4 7 4 7 1.4375 7.0625 C0.2309375 7.0315625 0.2309375 7.0315625 -1 7 C-1.625 4.625 -1.625 4.625 -2 2 C-1.34 1.34 -0.68 0.68 0 0 Z " fill="#444B90" transform="translate(797,519)"/>
<path d="M0 0 C1.66611905 -0.042721 3.33382885 -0.04063832 5 0 C6 1 6 1 6.0625 3.5625 C6.041875 4.366875 6.02125 5.17125 6 6 C3.625 6.625 3.625 6.625 1 7 C0.34 6.34 -0.32 5.68 -1 5 C-0.625 2.375 -0.625 2.375 0 0 Z " fill="#3F468D" transform="translate(1288,550)"/>
<path d="M0 0 C1.2065625 0.0309375 1.2065625 0.0309375 2.4375 0.0625 C3.0625 2.4375 3.0625 2.4375 3.4375 5.0625 C2.7775 5.7225 2.1175 6.3825 1.4375 7.0625 C-0.6875 6.6875 -0.6875 6.6875 -2.5625 6.0625 C-2.94468767 4.40635343 -3.27645102 2.73792976 -3.5625 1.0625 C-2.5625 0.0625 -2.5625 0.0625 0 0 Z " fill="#3F468D" transform="translate(921.5625,549.9375)"/>
<path d="M0 0 C12.375 0 12.375 0 16 1 C14.02 1.99 14.02 1.99 12 3 C14.97 3.495 14.97 3.495 18 4 C18 4.33 18 4.66 18 5 C16.72125 5.309375 15.4425 5.61875 14.125 5.9375 C11.89898325 6.47605244 10.05260001 6.9737 8 8 C8.185625 7.401875 8.37125 6.80375 8.5625 6.1875 C9.22093687 3.83591238 9.22093687 3.83591238 8 1 C5.69 1 3.38 1 1 1 C0.67 2.32 0.34 3.64 0 5 C0 3.35 0 1.7 0 0 Z " fill="#777CAC" transform="translate(649,531)"/>
<path d="M0 0 C1.125 3.75 1.125 3.75 0 6 C-1.66611905 6.042721 -3.33382885 6.04063832 -5 6 C-6 5 -6 5 -6.0625 2.4375 C-6.041875 1.633125 -6.02125 0.82875 -6 0 C-3.50907189 -1.24546405 -2.58919267 -0.7767578 0 0 Z " fill="#40478E" transform="translate(1023,520)"/>
<path d="M0 0 C0.99 0 1.98 0 3 0 C2.52651586 4.1666604 1.95303159 6.92884715 -1 10 C-2.66666667 10 -4.33333333 10 -6 10 C-5.07615834 8.32572385 -4.13549431 6.66071997 -3.1875 5 C-2.66542969 4.071875 -2.14335938 3.14375 -1.60546875 2.1875 C-0.81076172 1.1046875 -0.81076172 1.1046875 0 0 Z " fill="#7D88B2" transform="translate(1000,421)"/>
<path d="M0 0 C0.99 0 1.98 0 3 0 C2.52651586 4.1666604 1.95303159 6.92884715 -1 10 C-2.66666667 10 -4.33333333 10 -6 10 C-5.07615834 8.32572385 -4.13549431 6.66071997 -3.1875 5 C-2.66542969 4.071875 -2.14335938 3.14375 -1.60546875 2.1875 C-0.81076172 1.1046875 -0.81076172 1.1046875 0 0 Z " fill="#9AAAC5" transform="translate(702,421)"/>
<path d="M0 0 C0.99 0 1.98 0 3 0 C2.67 3.63 2.34 7.26 2 11 C1.01 11 0.02 11 -1 11 C-2.31625194 8.36749612 -1.74813658 7.19820944 -1.0625 4.375 C-0.86785156 3.55773437 -0.67320313 2.74046875 -0.47265625 1.8984375 C-0.23869141 0.95871094 -0.23869141 0.95871094 0 0 Z " fill="#6A6FA0" transform="translate(1211,421)"/>
<path d="M0 0 C0.66 0.33 1.32 0.66 2 1 C-1.63 4.63 -5.26 8.26 -9 12 C-9 7.8407692 -6.75316432 5.85455565 -4 3 C-1.6875 1.125 -1.6875 1.125 0 0 Z " fill="#909CBF" transform="translate(873,376)"/>
<path d="M0 0 C0.66 0.33 1.32 0.66 2 1 C-0.97 3.97 -3.94 6.94 -7 10 C-7.33 9.34 -7.66 8.68 -8 8 C-5.58443874 4.80800833 -3.31996462 2.25283313 0 0 Z " fill="#98A7C7" transform="translate(723,374)"/>
<path d="M0 0 C0.66 0 1.32 0 2 0 C1.34 2.64 0.68 5.28 0 8 C-1.32 8 -2.64 8 -4 8 C-4.33 8.99 -4.66 9.98 -5 11 C-5 9.68 -5 8.36 -5 7 C-3.68 7 -2.36 7 -1 7 C-1.020625 6.030625 -1.04125 5.06125 -1.0625 4.0625 C-1 1 -1 1 0 0 Z " fill="#8286B2" transform="translate(877,524)"/>
<path d="M0 0 C0.99 0.33 1.98 0.66 3 1 C2.21625 1.763125 1.4325 2.52625 0.625 3.3125 C-2.07257717 5.90891805 -2.07257717 5.90891805 -4 9 C-3.46930939 5.17902761 -2.50298434 2.93828597 0 0 Z " fill="#5B5F95" transform="translate(1226,338)"/>
<path d="M0 0 C0.66 0.33 1.32 0.66 2 1 C-0.31 3.31 -2.62 5.62 -5 8 C-5 5 -5 5 -2.5 2.3125 C-1.675 1.549375 -0.85 0.78625 0 0 Z " fill="#8D9CC1" transform="translate(814,374)"/>
</svg>
